<?xml version="1.0" standalone="no"?>
<!DOCTYPE svg PUBLIC "-//W3C//DTD SVG 1.1//EN" "http://www.w3.org/Graphics/SVG/1.1/DTD/svg11.dtd">
<svg t="1682671472022" class="icon" viewBox="0 0 1024 1024" version="1.1" xmlns="http://www.w3.org/2000/svg" p-id="4984" xmlns:xlink="http://www.w3.org/1999/xlink" width="200" height="200">
	<path d="M511.975917 30.344309c-266.018438 0-481.655691 215.637253-481.655691 481.655691 0 121.786642 45.564628 232.711947 120.100846 317.531515l34.053058-34.053058c-65.842333-76.053434-105.964252-174.985513-105.964252-283.478457 0-239.406961 194.083161-433.490122 433.490122-433.490122s433.490122 194.083161 433.490122 433.490122-194.083161 433.490122-433.490122 433.490122c-96.162559 0-184.714958-31.692944-256.626152-84.699153L221.007714 895.157103c80.894073 61.531515 181.487865 98.474506 290.968203 98.474506 266.018438 0 481.655691-215.637253 481.655692-481.655692 0.024083-265.994356-215.637253-481.631609-481.655692-481.631608z m-119.161618 634.918532l119.209784-119.209784 119.209783 119.209784 34.053058-34.07714-119.185701-119.185701 119.185701-119.185701-34.053058-34.07714-119.209783 119.209784-119.209784-119.209784-34.053057 34.07714 119.185701 119.185701-119.185701 119.185701 34.053057 34.07714z" p-id="4985">
	</path>
</svg>
