<?xml version="1.0" standalone="no"?><!DOCTYPE svg PUBLIC "-//W3C//DTD SVG 1.1//EN" "http://www.w3.org/Graphics/SVG/1.1/DTD/svg11.dtd"><svg t="1680166769786" class="icon" viewBox="0 0 1024 1024" version="1.1" xmlns="http://www.w3.org/2000/svg" p-id="1540" xmlns:xlink="http://www.w3.org/1999/xlink" width="200" height="200"><path d="M850.083483 829.291436c-17.767666 2.695389-34.921347 2.695389-52.253084 0 0-124.127042-5.791913-227.842195-49.170886-345.56334 42.766013-22.318308 90.678232-30.159904 137.976468-19.010983-2.469238 30.581506-9.506515 60.532655-15.687284 90.885963C853.390809 643.196041 845.323063 739.64879 850.083483 829.291436zM897.784902 442.416202l-1.225921 0.209778c-66.921155 5.358031-132.196835 11.570523-192.099133 44.828998-96.680946 53.479005-153.063071 144.172587-186.320523 245.384733-11.571546 35.517935-51.831482 76.828806-94.806249 77.248362-104.521518 1.033539-209.446219 3.083222-314.176492 3.083222-5.163603 0-9.084912-4.100388-10.538007-8.877181-2.25946-5.760191 1.243317-9.06854 6.616698-13.232372 46.685275-34.887578 98.743932-67.324338 151.609976-93.337805 11.781324-4.971222 18.590404-6.40692 28.724205-7.631818 37.374212-4.761444 62.370513-14.266935 91.288123-39.263236l178.268126-191.888332c92.321662-109.072161 181.752484-222.678592 274.704502-329.879126C948.812065 170.373319 939.321924 351.110683 897.784902 442.416202z" p-id="1541"></path></svg>