<?xml version="1.0" standalone="no"?>
<!DOCTYPE svg PUBLIC "-//W3C//DTD SVG 1.1//EN" "http://www.w3.org/Graphics/SVG/1.1/DTD/svg11.dtd">
<svg t="1682303377929" class="icon" viewBox="0 0 1024 1024" version="1.1" xmlns="http://www.w3.org/2000/svg" p-id="1080" xmlns:xlink="http://www.w3.org/1999/xlink" width="200" height="200">
	<path d="M511.125062 0l220.143862 180.283016 0.151449-90.896196 157.332305 0.151449 0.402159 217.175251 130.355907 138.105405-35.029818 37.445844L809.733997 292.217365l29.795607-12.884448 1.1328-141.553946-61.07603 0.075725-0.453325 126.983089-45.901423-17.749246L509.638198 65.529459 31.426745 482.263745l-31.406291-37.445844L511.125062 0zM128.666417 958.789813l267.555685 0 0.402159-272.386714 224.674039-0.402159 0.805342 272.788873 266.950911 0L889.054553 538.706245l-48.317449 0 0 372.368846L669.816317 911.075091 669.816317 636.877125l-321.911664 0.603751 0 273.595238L176.982842 911.076114l0-372.368846-48.317449 0L128.665393 958.789813 128.666417 958.789813z" p-id="1081">
	</path>
</svg>
