<?xml version="1.0" standalone="no"?>
<!DOCTYPE svg PUBLIC "-//W3C//DTD SVG 1.1//EN" "http://www.w3.org/Graphics/SVG/1.1/DTD/svg11.dtd">
<svg t="1682303381916" class="icon" viewBox="0 0 1075 1024" version="1.1" xmlns="http://www.w3.org/2000/svg" p-id="1215" xmlns:xlink="http://www.w3.org/1999/xlink" width="209.9609375" height="200">
	<path d="M597.60152366 914.62704733v-51.46819H1017.90476166v51.46819z m-73.971809 0H286.47619066L42.66666666 504.56380933 286.47619066 94.47619033h487.619047l243.809524 410.063238h-59.708952L744.22857166 147.91923833H316.29409566L102.32685666 504.53942833l213.967239 356.620191h207.238095v53.443047z m73.971809-134.777904V728.38095233H1017.90476166v51.468191z m-73.971809-87.064381a188.611048 188.611048 0 0 1-119.588572-59.270096 181.052952 181.052952 0 0 1-48.761905-123.392 185.807238 185.807238 0 0 1 187.538286-183.588571 188.562286 188.562286 0 0 1 130.681905 52.004571 180.711619 180.711619 0 0 1 56.807619 126.025143H679.74095266a136.996571 136.996571 0 1 0-156.038096 138.410667v49.785905z m73.971809-47.713524v-51.468191H1017.90476166v51.468191z" p-id="1216">
	</path>
</svg>
